<?xml version="1.0" standalone="no"?>
<!DOCTYPE svg PUBLIC "-//W3C//DTD SVG 20010904//EN"
 "http://www.w3.org/TR/2001/REC-SVG-20010904/DTD/svg10.dtd">
<svg version="1.0" xmlns="http://www.w3.org/2000/svg"
 width="260.000000pt" height="260.000000pt" viewBox="0 0 260.000000 260.000000"
 preserveAspectRatio="xMidYMid meet">
<metadata>
Created by potrace 1.11, written by Peter Selinger 2001-2013
</metadata>
<g transform="translate(0.000000,260.000000) scale(0.100000,-0.100000)"
fill="#000000" stroke="none">
<path d="M0 1300 l0 -1300 1300 0 1300 0 0 1300 0 1300 -1300 0 -1300 0 0
-1300z m1478 805 c156 -32 293 -120 359 -233 31 -53 63 -161 63 -214 l0 -38
-143 0 -143 0 -12 59 c-28 137 -134 201 -331 201 -132 0 -238 -46 -267 -116
-19 -45 -18 -118 2 -161 35 -73 104 -103 364 -158 278 -58 393 -107 480 -201
146 -161 130 -447 -35 -603 -192 -181 -652 -214 -920 -66 -76 42 -168 138
-201 209 -26 58 -54 170 -54 224 l0 33 148 -3 147 -3 6 -52 c14 -109 78 -190
181 -228 43 -16 78 -20 193 -20 126 0 145 2 193 24 116 52 162 167 110 271
-19 37 -34 51 -88 78 -65 32 -121 48 -350 97 -267 57 -407 150 -471 312 -19
47 -23 78 -23 164 -1 102 0 107 37 181 25 51 53 91 85 119 58 51 167 105 253
123 89 20 320 20 417 1z"/>
</g>
</svg>
