<?xml version="1.0" encoding="UTF-8" standalone="no"?>
<svg
   xmlns:dc="http://purl.org/dc/elements/1.1/"
   xmlns:cc="http://creativecommons.org/ns#"
   xmlns:rdf="http://www.w3.org/1999/02/22-rdf-syntax-ns#"
   xmlns:svg="http://www.w3.org/2000/svg"
   xmlns="http://www.w3.org/2000/svg"
   xmlns:xlink="http://www.w3.org/1999/xlink"
   version="1.1"
   viewBox="0 0 1116.21 857.08"
   height="857.08"
   width="1116.21"
   data-name="Layer 1"
   id="cbb92aef-a4c8-4910-9d60-405154a20c92">
  <metadata
     id="metadata244">
    <rdf:RDF>
      <cc:Work
         rdf:about="">
        <dc:format>image/svg+xml</dc:format>
        <dc:type
           rdf:resource="http://purl.org/dc/dcmitype/StillImage" />
        <dc:title>hero</dc:title>
      </cc:Work>
    </rdf:RDF>
  </metadata>
  <defs
     id="defs10">
    <linearGradient
       gradientUnits="userSpaceOnUse"
       y2="117"
       x2="654.32"
       y1="613.24"
       x1="654.32"
       id="6af09e6e-7617-4e7d-96c6-87d8d61cc5fb">
      <stop
         id="stop2"
         stop-opacity="0.25"
         stop-color="gray"
         offset="0" />
      <stop
         id="stop4"
         stop-opacity="0.12"
         stop-color="gray"
         offset="0.54" />
      <stop
         id="stop6"
         stop-opacity="0.1"
         stop-color="gray"
         offset="1" />
    </linearGradient>
    <linearGradient
       xlink:href="#6af09e6e-7617-4e7d-96c6-87d8d61cc5fb"
       y2="223.28"
       x2="475.65"
       y1="861.71"
       x1="475.65"
       id="f366e0cb-9767-4f71-a21d-568f9afb6f3a" />
  </defs>
  <title
     id="title12">hero</title>
  <path
     transform="translate(-41.9,-21.46)"
     style="opacity:0.5;fill:#daebf5;fill-opacity:1"
     id="path14"
     d="M 1101.5447,628.52535 C 1040.8335,645.35781 948.01317,642.25017 877.83,644.18 725.6,648.36 573,652.53 421.14,642.9 361.14,639.1 283.83986,636.56133 246.49218,625.74619 223.47242,617.29217 197.05743,603.39272 180.03521,584.92571 170.14784,574.07973 160.14,559.08 154.63,546.96 c -11.49,-25.24 -5.41,-53.59 7.71,-78.33 5.449,-10.00865 11.59412,-19.62229 18.39,-28.77 10.13,-13.93 19.0892,-54.23528 23.38372,-70.61173 -2.7669,-65.49982 -14.71885,-145.3013 -2.85372,-238.28827 0.41333,-2.66667 0.85,-5.30667 1.31,-7.92 5.43,-31.14 15.65,-64.69 47.16,-84.13 32.73,-20.2 79.21,-19.18 119.83,-12 63.17,11.28 121.44,34.76 180.33,55.96 58.89,21.2 120.5,40.57 185.22,42.65 57.15,1.84 123.81,-11.93 161.74,-47.72 36.84,-34.76 106.09,-37.41 156,-16.41 34.26,14.41 59.82,40.37 70.6,69.57 2.1833,5.86234 3.755,11.93458 4.69,18.12 0.8641,5.65292 1.1455,11.3796 0.84,17.09 -0.15,2.82 -0.44,5.61 -0.84,8.37 -10.4616,86.27129 -19.588,143.91636 -20.1913,232.82127 13.3099,105.79436 97.0748,180.80745 -6.404,221.16408 z" />
  <g
     data-name="flowers"
     id="d00831fc-a64a-413c-b5dd-d7bd6eafa01d">
    <path
       fill="none"
       stroke="#535461"
       stroke-width="2"
       id="path16"
       stroke-miterlimit="10"
       transform="translate(-41.9 -21.46)"
       d="M299.89,346.32s-46-81.52-115.32-105c-29.09-9.86-54.48-28.4-71.84-53.74a238,238,0,0,1-21.2-38.12" />
    <path
       style="fill:#1b7393;fill-opacity:1"
       fill="#6c63ff"
       id="path18"
       transform="translate(-41.9 -21.46)"
       d="M47.94,134.37C55.84,142,92.62,150,92.62,150s-9-36.52-16.92-44.19a19.93,19.93,0,0,0-27.76,28.6Z" />
    <path
       style="fill:#1b7393;fill-opacity:1"
       fill="#6c63ff"
       id="path20"
       transform="translate(-41.9 -21.46)"
       d="M68.75,200.46c10.79,2.14,46-11.19,46-11.19S87.3,163.51,76.5,161.37a19.93,19.93,0,0,0-7.75,39.09Z" />
    <path
       style="fill:#1b7393;fill-opacity:1"
       fill="#6c63ff"
       id="path22"
       transform="translate(-41.9 -21.46)"
       d="M144.5,272c10.4-3.6,34-32.87,34-32.87s-36.68-8.39-47.07-4.79a19.93,19.93,0,1,0,13,37.66Z" />
    <path
       style="fill:#1b7393;fill-opacity:1"
       fill="#6c63ff"
       id="path24"
       transform="translate(-41.9 -21.46)"
       d="M214,313.19c10.86-1.8,39.1-26.65,39.1-26.65s-34.73-14.47-45.59-12.68A19.93,19.93,0,0,0,214,313.19Z" />
    <path
       style="fill:#1b7393;fill-opacity:1"
       fill="#6c63ff"
       id="path26"
       transform="translate(-41.9 -21.46)"
       d="M145.39,160.73c0,11-19.9,42.93-19.9,42.93s-19.94-31.91-19.95-42.91a19.93,19.93,0,1,1,39.85,0Z" />
    <path
       fill="#6c63ff"
       id="path30"
       transform="translate(-41.9 -21.46)"
       d="M297.91,268.55c-1.46,10.91-25.46,39.88-25.46,39.88s-15.5-34.28-14-45.19a19.93,19.93,0,0,1,39.5,5.31Z" />
    <path
       opacity="0.25"
       id="path44"
       transform="translate(-41.9 -21.46)"
       d="M297.91,268.55c-1.46,10.91-25.46,39.88-25.46,39.88s-15.5-34.28-14-45.19a19.93,19.93,0,0,1,39.5,5.31Z" />
    <path
       fill="none"
       stroke="#535461"
       stroke-width="2"
       id="path46"
       stroke-miterlimit="10"
       transform="translate(-41.9 -21.46)"
       d="M297.24,344.7s-9-93.18-62.88-142.74c-22.59-20.8-38.29-48-43.9-78.24a238.15,238.15,0,0,1-3.92-43.45" />
    <path
       style="fill:#3c93b4;fill-opacity:1"
       fill="#6c63ff"
       id="path48"
       transform="translate(-41.9 -21.46)"
       d="M152.79,48.84c4.12,10.21,34.53,32.36,34.53,32.36s6.55-37.05,2.44-47.26a19.93,19.93,0,0,0-37,14.9Z" />
    <path
       style="fill:#3c93b4;fill-opacity:1"
       fill="#6c63ff"
       id="path50"
       transform="translate(-41.9 -21.46)"
       d="M145,117.69c9,6.33,46.57,8.4,46.57,8.4S177,91.43,168,85.1A19.92,19.92,0,1,0,145,117.69Z" />
    <path
       style="fill:#3c93b4;fill-opacity:1"
       fill="#6c63ff"
       id="path52"
       transform="translate(-41.9 -21.46)"
       d="M185.31,213.77c11,.93,44.44-16.26,44.44-16.26s-30.13-22.53-41.1-23.45a19.93,19.93,0,1,0-3.34,39.71Z" />
    <path
       style="fill:#1b7493;fill-opacity:1"
       id="path54"
       d="m 165.82857,217.44476 c 3.19684,10.53724 31.52084,35.29772 31.52084,35.29772 0,0 9.81753,-36.32077 6.62588,-46.84946 a 19.93,19.93 0 0 0 -38.14152,11.56027 z" />
    <path
       style="fill:#3c93b4;fill-opacity:1"
       fill="#6c63ff"
       id="path56"
       transform="translate(-41.9 -21.46)"
       d="M231.2,112.43c-4.45,10.06-35.59,31.17-35.59,31.17s-5.3-37.24-.85-47.31a19.93,19.93,0,1,1,36.44,16.14Z" />
    <path
       fill="#6c63ff"
       id="path58"
       transform="translate(-41.9 -21.46)"
       d="M285,190.11c-7.26,8.27-43.29,19.1-43.29,19.1s6.08-37.12,13.35-45.39A19.92,19.92,0,1,1,285,190.11Z" />
    <path
       fill="#6c63ff"
       id="path60"
       transform="translate(-41.9 -21.46)"
       d="M327,272.8c-5.76,9.38-39.44,26.14-39.44,26.14s-.28-37.62,5.48-47a19.93,19.93,0,0,1,34,20.86Z" />
  </g>
  <g
     transform="matrix(0.91528307,0,0,1,51.882769,0)"
     data-name="browser"
     id="1cf578eb-5ffb-4cd7-95b8-45aaaddab7e0">
    <path
       transform="translate(-41.9,-21.46)"
       style="fill:#ffffff"
       id="path102"
       d="M 1132.4541,597.97807 1128.16,131 H 180.73 l 0.13024,464.96396 c -0.088,15.7814 -0.92428,17.89948 17.66063,17.76303 l 914.01503,-0.65268 c 17.8999,-0.46171 20.4297,-0.25052 19.9182,-15.09629 z" />
    <rect
       style="fill:#5a5773"
       id="rect104"
       height="25.139999"
       width="947.41998"
       y="96.93"
       x="138.84" />
  </g>
  <g
     transform="translate(34.044632)"
     data-name="buttons"
     id="6703b009-63cb-4af0-a0d7-9948e224c180">
    <circle
       style="fill:#ffffff"
       id="circle107"
       r="6.5"
       cy="109.5"
       cx="157.75999" />
    <circle
       style="fill:#ffffff"
       id="circle109"
       r="6.5"
       cy="109.5"
       cx="175.25999" />
    <circle
       style="fill:#ffffff"
       id="circle111"
       r="6.5"
       cy="109.5"
       cx="192.75999" />
  </g>
  <g
     transform="matrix(1.1003961,0,0,1.0988606,92.842083,-50.328554)"
     data-name="boxes"
     id="8c4e1fb4-b9ff-4530-b767-610e84618ea6">
    <rect
       style="fill:#e4572e;fill-opacity:1;stroke-width:1.10048139"
       id="rect114"
       height="105.92737"
       width="175.95508"
       y="177.32001"
       x="371.22247" />
    <rect
       style="opacity:0.2;fill:#5a5773;stroke-width:1.06177628"
       id="rect116"
       height="105.92737"
       width="163.79565"
       y="177.32001"
       x="164.25999" />
    <rect
       style="opacity:0.2;fill:#5a5773;stroke-width:1.07353437"
       id="rect118"
       height="105.92737"
       width="167.44348"
       y="177.32001"
       x="586.69653" />
    <rect
       style="opacity:0.2;fill:#5a5773;stroke-width:1.07437706"
       id="rect120"
       height="108.45649"
       width="163.79565"
       y="312.85175"
       x="164.25999" />
    <rect
       style="opacity:0.2;fill:#5a5773;stroke-width:1.11354148"
       id="rect122"
       height="108.45649"
       width="175.95508"
       y="312.85175"
       x="371.22247" />
    <rect
       style="opacity:0.2;fill:#5a5773;stroke-width:1.08627474"
       id="rect124"
       height="108.45649"
       width="167.44348"
       y="312.85175"
       x="586.69653" />
    <rect
       style="opacity:0.2;fill:#5a5773;stroke-width:1.06177628"
       id="rect126"
       height="105.92737"
       width="163.79565"
       y="450.90262"
       x="164.25999" />
    <rect
       style="opacity:0.2;fill:#5a5773;stroke-width:1.10048139"
       id="rect128"
       height="105.92737"
       width="175.95508"
       y="450.90262"
       x="371.22247" />
    <rect
       style="opacity:0.2;fill:#5a5773;stroke-width:1.07353437"
       id="rect130"
       height="105.92737"
       width="167.44348"
       y="450.90262"
       x="586.69653" />
  </g>
  <g
     transform="translate(60.082413,-5.3000544)"
     data-name="woman"
     id="2796dd85-6618-42ad-b8a0-d6b4cc80ab2d">
    <path
       style="fill:#efb7b9"
       id="path135"
       transform="translate(-41.9,-21.46)"
       d="m 541,284.92 -10.8,3.82 -3.92,-6.5 c -3,-5 -7.16,-11.84 -10.23,-16.81 -5.42,-8.74 1.67,-22.06 1.67,-22.06 0,0 1.28,-13.37 5.84,-17.49 4.56,-4.12 5.83,17.49 5.83,17.49 18.31,8.32 8.5,27.89 8.5,27.89 l 1.78,7.76 z" />
    <path
       style="opacity:0.1"
       id="path137"
       transform="translate(-41.9,-21.46)"
       d="m 541,284.92 -10.8,3.82 -3.92,-6.5 v -0.57 c 0,0 6.19,-4.25 13.41,-2.65 z" />
    <path
       style="fill:#54adcc;fill-opacity:1"
       id="path139"
       transform="translate(-41.9,-21.46)"
       d="m 523.56,328.72 5.41,-4.58 -2.71,-41.22 c 0,0 14,-9.58 24.36,5.41 0,0 -0.42,9.16 0,11.66 0.42,2.5 -2.91,5 0,7.49 2.91,2.49 0,10.83 0,10.83 0,0 3.29,5.83 5.37,7.49 2.08,1.66 4.17,15.41 0,18.32 -4.17,2.91 -11.99,9.58 -11.99,12.49 0,2.91 -10,10 -10,10 L 525.22,355 Z" />
    <path
       style="fill:#efb7b9"
       id="path141"
       transform="translate(-41.9,-21.46)"
       d="m 406.56,578.94 c -20.18,-8.56 -15.7,-29.47 -11.9,-40 a 54.46,54.46 0 0 1 2.67,-6.24 l 11.32,-6.87 c 0,0 2.31,5.89 4.78,13.79 5.73,18.38 12.32,47.47 -6.87,39.32 z" />
    <path
       style="fill:#efb7b9"
       id="path143"
       transform="translate(-41.9,-21.46)"
       d="m 434.3,769.73 a 34,34 0 0 0 -3,8.42 60.81,60.81 0 0 0 -1.3,14.33 c 0.08,3.33 0.36,5.51 0.36,5.51 l -22.48,15.46 c 0,0 0.13,-1.81 0.35,-4.47 0.58,-7.08 1.79,-20.22 2.93,-21.92 0.79,-1.18 1.34,-5.92 1.69,-10.32 0.35,-4.4 0.49,-8.26 0.49,-8.26 0,0 27.05,-10.14 20.96,1.25 z" />
    <path
       style="fill:#efb7b9"
       id="path145"
       transform="translate(-41.9,-21.46)"
       d="m 487.39,780.82 c 0,0 0,4.3 -0.16,9.3 -0.16,5 -0.46,10.9 -1.09,13.65 -0.58,2.52 -0.62,7.15 -0.51,11.42 0.15,5 0.51,9.5 0.51,9.5 0,0 -22.95,-21.7 -20.61,-23.42 0.63,-0.46 1.25,-2.31 1.82,-4.77 0.7,-3 1.33,-7 1.8,-10.4 0.56,-4.05 0.91,-7.31 0.91,-7.31 z" />
    <path
       style="opacity:0.1"
       id="path147"
       transform="translate(-41.9,-21.46)"
       d="m 434.3,769.73 a 34,34 0 0 0 -3,8.42 183.72,183.72 0 0 1 -18.4,-1.41 c 0.34,-4.3 0.49,-8.26 0.49,-8.26 0,0 27,-10.14 20.91,1.25 z" />
    <path
       style="opacity:0.1"
       id="path149"
       transform="translate(-41.9,-21.46)"
       d="m 487.39,780.82 c 0,0 0,4.3 -0.16,9.3 -7.16,1.83 -14.52,-1.83 -18.08,-4 0.56,-4.05 0.91,-7.31 0.91,-7.31 z" />
    <path
       style="fill:#444053"
       transform="translate(-41.9,-21.46)"
       id="path151"
       d="m 534.38,568.12 c -9.16,20 -12.91,43.72 -12.91,43.72 l -3.33,20 c 0,0 1.67,8.74 0,12.07 -1.67,3.33 -5,8.75 -5,8.75 0,0 2.5,20.4 0,22.48 -2.5,2.08 0,14.57 0,14.57 l -8.33,42 -11.66,54.12 c -11.24,9.17 -26.2,-2.49 -26.2,-2.49 l 3.3,-35.39 c 0,0 5,-62 2.92,-64.54 C 471.09,680.87 474,673 474,673 c 0,0 2.92,-7.5 0.84,-10.41 -2.08,-2.91 0.41,-9.16 0.41,-9.16 0,0 -0.83,-25.4 1.67,-31.23 2.5,-5.83 0,-41.89 0,-41.89 l -1,-11.23 -0.58,-6.22 -0.05,-0.61 c 0,0 -0.38,2.49 -1,6.35 -1.84,11.75 -5.76,36.1 -7.31,41.11 a 53.53,53.53 0 0 1 -4.27,10.41 c 0,0 2.16,12.49 0,15.82 -2.16,3.33 -0.33,7.08 -0.33,7.08 0,0 2.08,10.41 -4.17,14.57 -6.25,4.16 0,6.25 0,6.25 0,0 -4.58,10 -6.24,14.15 -1.66,4.15 0,10 0,10 l -3.33,33.72 c 0,0 -2.92,14.15 -2.5,23.73 0.42,9.58 -3.75,31.64 -3.75,31.64 0,0 -32.06,0 -37,-3.75 -4.94,-3.75 8.25,-40.33 8.25,-40.33 0,0 3.75,-64.12 2.91,-65.78 -0.84,-1.66 0,-14.16 2.92,-16.65 2.92,-2.49 0,-7.5 0,-7.5 0,0 -0.83,-10 0,-12.49 0.83,-2.49 -0.13,-10.83 -0.13,-10.83 0,0 -2.79,-20.4 -3.2,-32.06 -0.41,-11.66 -2.5,-37.88 -2.5,-37.88 0,0 2.18,-16.22 2.51,-23.94 0.12,-2.84 1.39,-6.39 3,-9.73 a 86.81,86.81 0 0 1 6.2,-10.88 c 0,0 98.65,-29.16 102.79,-26.26 1.1,0.77 2.7,6 4.28,13.57 4.4,21.15 8.7,60.85 1.96,75.55 z" />
    <circle
       style="fill:#a1616a"
       id="circle153"
       r="28.73"
       cy="263.45999"
       cx="431.70001" />
    <path
       style="opacity:0.1"
       id="path155"
       transform="translate(-41.9,-21.46)"
       d="m 532.42,492.59 c -3.31,1.7 -5.53,2.87 -5.53,2.87 0,0 -46.63,22.07 -59.89,20.82 -10.26,-1 -36.45,-0.43 -47.86,-0.15 a 86.81,86.81 0 0 1 6.2,-10.88 c 0,0 98.66,-29.15 102.8,-26.25 1.1,0.79 2.7,6 4.28,13.59 z" />
    <path
       style="fill:#54adcc;fill-opacity:1"
       id="path157"
       transform="translate(-41.9,-21.46)"
       d="m 453.61,330.8 c 0,0 -26.61,4.2 -32.89,8.32 -6.28,4.12 -18.72,12.08 -18.72,29.15 0,17.07 -2.91,34.56 -4.58,39.55 -1.67,4.99 26.23,45.38 26.23,45.38 l -10,61.21 c 0,0 40,-1.25 53.32,0 13.32,1.25 59.93,-20.82 59.93,-20.82 0,0 27.48,-14.57 33.31,-15 5.83,-0.43 -11.66,-32.06 -11.66,-32.06 0,0 -27.07,-51.2 -22.49,-59.53 4.58,-8.33 7.94,-20.4 7.94,-20.4 l -5,-42.46 c 0,0 -7.49,-2.5 -13.74,2.08 -6.25,4.58 -27.48,2.08 -27.48,2.08 z" />
    <path
       style="opacity:0.1"
       id="path159"
       transform="translate(-41.9,-21.46)"
       d="M 408.44,404.91 398,407.82 395.11,447 c 0,0 3.75,10.41 0,13.74 -3.75,3.33 -4.58,74.53 -4.58,74.53 0,0 12.08,8.74 26.23,2.08 0,0 -2.08,-7.91 4.17,-36.64 6.25,-28.73 6.24,-43.3 6.24,-43.3 0,0 0,-35.81 2.92,-41.64 2.92,-5.83 0,-20.4 0,-20.4 0,0 -5.83,-7.91 -5.42,-10.82 0.41,-2.91 -16.23,20.36 -16.23,20.36 z" />
    <path
       style="opacity:0.1"
       id="path161"
       transform="translate(-41.9,-21.46)"
       d="m 413.43,539.65 a 26.59,26.59 0 0 1 -18.77,-0.68 54.46,54.46 0 0 1 2.67,-6.24 l 11.32,-6.87 c 0,0 2.35,5.89 4.78,13.79 z" />
    <path
       style="fill:#54adcc;fill-opacity:1"
       id="path163"
       transform="translate(-41.9,-21.46)"
       d="m 407.81,404.91 -10.41,2.91 -2.91,39.18 c 0,0 3.75,10.41 0,13.74 -3.75,3.33 -4.58,74.53 -4.58,74.53 0,0 12.09,8.73 26.23,2.04 0,0 -2.08,-7.91 4.16,-36.64 6.24,-28.73 6.25,-43.3 6.25,-43.3 0,0 0,-35.81 2.91,-41.64 2.91,-5.83 0,-20.4 0,-20.4 0,0 -5.83,-7.91 -5.41,-10.82 0.42,-2.91 -16.24,20.4 -16.24,20.4 z" />
    <path
       style="opacity:0.1"
       id="path165"
       transform="translate(-41.9,-21.46)"
       d="m 514.4,411.15 c 0,0 -5.41,46.63 -21.24,55.38 0,0 35.39,-9.99 21.24,-55.38 z" />
    <path
       style="opacity:0.1"
       id="path167"
       transform="translate(-41.9,-21.46)"
       d="m 434.88,415.32 c 0,0 19.56,9.57 15,16.23 -4.56,6.66 -15,-16.23 -15,-16.23 z" />
    <path
       style="opacity:0.1"
       id="path169"
       transform="translate(-41.9,-21.46)"
       d="m 434.88,434.47 c 0,0 12.49,12.91 10,17.49 -2.49,4.58 -10,-17.49 -10,-17.49 z" />
    <path
       style="opacity:0.1"
       id="path171"
       transform="translate(-41.9,-21.46)"
       d="m 535.63,327.47 c 0,0 4.9,8.32 5.37,13.74 0.47,5.42 -5.37,-13.74 -5.37,-13.74 z" />
    <path
       style="opacity:0.1"
       id="path173"
       transform="translate(-41.9,-21.46)"
       d="m 535.63,316.23 c 0,0 2.46,-2.09 8.74,0 6.28,2.09 -8.74,0 -8.74,0 z" />
    <path
       style="opacity:0.1"
       id="path175"
       transform="translate(-41.9,-21.46)"
       d="m 511.59,559.58 a 57.9,57.9 0 0 1 -30.45,-3.9 l -5.25,13.44 -0.58,-6.22 c 0.86,-5.22 2.53,-10.81 5.83,-12.22 0,0 11.56,9.21 30.45,8.9 z" />
    <path
       style="opacity:0.1"
       id="path177"
       transform="translate(-41.9,-21.46)"
       d="m 426.18,577.07 c 0,0 25.61,5.31 32.79,4.37 z" />
    <path
       style="opacity:0.1"
       id="path179"
       transform="translate(-41.9,-21.46)"
       d="m 428.84,583.78 c 0,0 10.93,-0.47 16.39,1.72 z" />
    <path
       style="opacity:0.1"
       id="path181"
       transform="translate(-41.9,-21.46)"
       d="m 430.09,588.31 a 98,98 0 0 0 15.14,2 z" />
    <path
       style="opacity:0.1"
       id="path183"
       transform="translate(-41.9,-21.46)"
       d="m 429.46,645.61 c 0.47,-0.31 21.86,-5.31 24.52,-1.72 z" />
    <path
       style="opacity:0.1"
       id="path185"
       transform="translate(-41.9,-21.46)"
       d="m 429.46,652.17 c 0,0 18.58,-2.19 19.05,0 0.47,2.19 -19.05,0 -19.05,0 z" />
    <path
       style="opacity:0.1"
       id="path187"
       transform="translate(-41.9,-21.46)"
       d="m 429.46,658.1 c 0,0 19.83,-4.1 22.17,-3.1 2.34,1 -22.17,3.1 -22.17,3.1 z" />
    <path
       style="opacity:0.1"
       id="path189"
       transform="translate(-41.9,-21.46)"
       d="m 430.4,798 -22.48,15.46 c 0,0 0.13,-1.81 0.35,-4.47 5,-12.3 11.51,-18.79 11.51,-18.79 5.07,-1.32 8.27,-0.1 10.26,2.29 0.08,3.32 0.36,5.51 0.36,5.51 z" />
    <path
       style="fill:#444053"
       id="path191"
       transform="translate(-41.9,-21.46)"
       d="m 432.59,811.89 a 55.79,55.79 0 0 0 -4.69,23 35.67,35.67 0 0 1 -4.76,18.51 18.24,18.24 0 0 1 -1.58,2.26 c 0,0 -15.62,-0.13 -21.09,-4.66 A 5.41,5.41 0 0 1 399,849.2 c -3.13,-6.24 6.09,-30.13 6.09,-30.13 4.84,-18.42 14.67,-28.26 14.67,-28.26 17.51,-4.53 12.83,21.08 12.83,21.08 z" />
    <path
       style="opacity:0.1"
       id="path193"
       transform="translate(-41.9,-21.46)"
       d="m 423.14,853.35 a 18.24,18.24 0 0 1 -1.58,2.26 c 0,0 -15.62,-0.13 -21.09,-4.66 2.69,-8.9 11.27,-35.83 15.29,-31.25 3.78,4.3 6.41,24.99 7.38,33.65 z" />
    <path
       style="fill:#444053"
       id="path195"
       transform="translate(-41.9,-21.46)"
       d="m 421,821.37 -1.09,40.34 h 5.24 c 0,0 0.85,-35.39 3.19,-40.34 2.34,-4.95 -7.34,0 -7.34,0 z" />
    <path
       style="opacity:0.1"
       id="path197"
       transform="translate(-41.9,-21.46)"
       d="m 486.14,824.69 c 0,0 -22.95,-21.7 -20.61,-23.42 0.63,-0.46 1.25,-2.31 1.82,-4.77 4.41,-0.77 12,1.07 18.28,18.69 0.15,5 0.51,9.5 0.51,9.5 z" />
    <path
       style="fill:#444053"
       id="path199"
       transform="translate(-41.9,-21.46)"
       d="m 489.57,848.89 a 2.33,2.33 0 0 1 -0.55,0.16 c -2.7,0.47 -12.65,0.2 -18.22,0 a 3.94,3.94 0 0 1 -3.81,-3.93 c 0,-1.5 0,-3.33 -0.12,-5.28 -0.26,-6.16 -1,-13.49 -3.21,-15.14 -3.91,-3 -7,-13.18 0,-26.07 0,0 13.42,-10.25 23.1,20.56 0,0 0.94,8.79 5.15,11.91 4.21,3.12 -0.46,16.9 -2.34,17.79 z" />
    <path
       style="opacity:0.1"
       id="path201"
       transform="translate(-41.9,-21.46)"
       d="m 489,849.05 c -2.7,0.47 -12.65,0.2 -18.22,0 a 3.94,3.94 0 0 1 -3.81,-3.93 c 0,-1.5 0,-3.33 -0.12,-5.28 1.69,-7.46 4.12,-15.14 7.25,-16.89 0.02,-0.01 9.49,-1.08 14.9,26.1 z" />
    <polygon
       style="fill:#444053"
       id="polygon203"
       points="429.18,834.15 429.18,797.72 423.46,800.58 425.98,834.15 " />
    <path
       style="opacity:0.1"
       id="path205"
       transform="translate(-41.9,-21.46)"
       d="m 473.18,239.14 a 57.42,57.42 0 0 0 -25.62,8.23 c -2,1.21 -4,2.68 -4.83,4.85 -0.72,1.88 -0.42,4 -0.39,6 0.27,17.22 -18.93,30.25 -18.33,47.46 0.24,6.83 3.67,13.19 4.3,20 1.05,11.36 -5.67,21.81 -12.11,31.22 a 25.86,25.86 0 0 0 18.25,-6.05 138.39,138.39 0 0 1 2.55,69.75 h 9.21 a 7,7 0 0 1 2.69,0.33 6.76,6.76 0 0 1 2.13,1.59 c 8.61,8.57 14.38,21.24 11.09,32.94 l 19.6,-7.35 c 4.69,-1.76 9.45,-3.55 13.53,-6.45 4.08,-2.9 7.5,-7.11 8.36,-12.05 0.53,-3 0.36,-6.58 2.83,-8.32 a 15.4,15.4 0 0 1 3.86,-1.43 c 5.38,-1.9 7.76,-8.12 8.86,-13.72 a 79,79 0 0 0 1.25,-20.87 c -0.87,-11.7 -4.33,-23.58 -1.48,-35 1.61,-6.41 5.19,-12.38 5.48,-19 0.47,-10.91 -8.06,-20.31 -9.33,-31.16 -0.89,-7.56 1.84,-15.21 0.95,-22.77 a 24.46,24.46 0 0 0 -12.87,-18.57 c -2.41,-1.24 -5,-2.07 -7.38,-3.44 -5.43,-3.15 -8.9,-8.82 -13.83,-12.72 -4.93,-3.9 -13.14,-5.37 -16.85,-0.3 z" />
    <path
       style="fill:#925978"
       id="path207"
       transform="translate(-41.9,-21.46)"
       d="m 473.18,237.89 a 57.42,57.42 0 0 0 -25.62,8.23 c -2,1.21 -4,2.68 -4.83,4.85 -0.72,1.88 -0.42,4 -0.39,6 0.27,17.22 -18.93,30.25 -18.33,47.47 0.24,6.82 3.67,13.18 4.3,20 1.05,11.36 -5.67,21.81 -12.11,31.23 a 26,26 0 0 0 18.25,-6.05 138.34,138.34 0 0 1 2.55,69.73 h 9.21 a 7,7 0 0 1 2.69,0.34 6.58,6.58 0 0 1 2.13,1.58 c 8.61,8.58 14.38,21.24 11.09,32.94 l 19.6,-7.35 c 4.69,-1.76 9.45,-3.55 13.53,-6.45 4.08,-2.9 7.5,-7.11 8.36,-12.05 0.53,-3 0.36,-6.58 2.83,-8.32 a 15.4,15.4 0 0 1 3.86,-1.43 c 5.38,-1.9 7.76,-8.12 8.86,-13.72 A 79,79 0 0 0 520.44,384 c -0.87,-11.7 -4.33,-23.58 -1.48,-35 1.61,-6.41 5.19,-12.38 5.48,-19 0.47,-10.91 -8.06,-20.31 -9.33,-31.16 -0.89,-7.56 1.84,-15.2 0.95,-22.77 A 24.48,24.48 0 0 0 503.19,257.5 c -2.41,-1.24 -5,-2.07 -7.38,-3.43 -5.43,-3.16 -8.9,-8.83 -13.83,-12.73 -4.93,-3.9 -13.14,-5.37 -16.85,-0.3 z" />
    <g
       style="opacity:0.1"
       id="g223">
      <path
         id="path209"
         transform="translate(-41.9,-21.46)"
         d="m 442.32,252.81 a 11.12,11.12 0 0 0 -0.06,1.16 c 0.03,-0.38 0.05,-0.77 0.06,-1.16 z" />
      <path
         id="path211"
         transform="translate(-41.9,-21.46)"
         d="m 515,292.84 c 0.36,-5.3 1.54,-10.62 1.1,-15.9 -0.33,5.3 -1.51,10.62 -1.1,15.9 z" />
      <path
         id="path213"
         transform="translate(-41.9,-21.46)"
         d="m 428.31,319.19 c -0.58,-6.2 -3.47,-12 -4.15,-18.19 a 22.8,22.8 0 0 0 -0.15,3.42 c 0.24,6.75 3.59,13.06 4.27,19.78 a 27,27 0 0 0 0.03,-5.01 z" />
      <path
         id="path215"
         transform="translate(-41.9,-21.46)"
         d="m 519,343.82 a 42.88,42.88 0 0 0 -1,12.42 37.65,37.65 0 0 1 1,-7.21 c 1.61,-6.41 5.19,-12.38 5.48,-19 a 20.61,20.61 0 0 0 -0.16,-3.52 c -0.78,5.95 -3.89,11.49 -5.32,17.31 z" />
      <path
         id="path217"
         transform="translate(-41.9,-21.46)"
         d="m 434.45,344.36 a 26,26 0 0 1 -14.76,6 c -1.14,1.78 -2.32,3.52 -3.49,5.24 a 26,26 0 0 0 18.25,-6.05 138,138 0 0 1 5.82,37.45 138.31,138.31 0 0 0 -5.82,-42.64 z" />
      <path
         id="path219"
         transform="translate(-41.9,-21.46)"
         d="m 519.19,399.65 c -1.1,5.6 -3.48,11.82 -8.86,13.71 a 15,15 0 0 0 -3.86,1.44 c -2.47,1.74 -2.3,5.34 -2.83,8.32 -0.86,4.94 -4.27,9.14 -8.36,12 -4.09,2.86 -8.84,4.7 -13.53,6.46 l -18.7,7 a 25.81,25.81 0 0 1 -0.9,5.55 l 19.6,-7.35 c 4.69,-1.76 9.45,-3.55 13.53,-6.45 4.08,-2.9 7.5,-7.11 8.36,-12.05 0.53,-3 0.36,-6.58 2.83,-8.32 a 15.4,15.4 0 0 1 3.86,-1.43 c 5.38,-1.9 7.76,-8.12 8.86,-13.72 a 78.42,78.42 0 0 0 1.41,-17.7 78.3,78.3 0 0 1 -1.41,12.54 z" />
      <path
         id="path221"
         transform="translate(-41.9,-21.46)"
         d="m 451.06,416 a 6.61,6.61 0 0 0 -2.13,-1.59 7.15,7.15 0 0 0 -2.69,-0.34 h -8.17 c -0.32,1.74 -0.66,3.48 -1,5.21 h 9.21 a 7,7 0 0 1 2.69,0.34 6.58,6.58 0 0 1 2.13,1.58 c 6.3,6.28 11.07,14.74 11.89,23.42 C 464,434.24 458.62,423.56 451.06,416 Z" />
    </g>
    <path
       style="opacity:0.1"
       id="path225"
       transform="translate(-41.9,-21.46)"
       d="m 405.37,450.08 c 0,0 7.44,-3.12 9.1,0 1.66,3.12 -9.1,0 -9.1,0 z" />
    <path
       style="opacity:0.1"
       id="path227"
       transform="translate(-41.9,-21.46)"
       d="m 408,455.43 c 0,0 7.44,-3.12 9.11,0 1.67,3.12 -9.11,0 -9.11,0 z" />
  </g>
</svg>
